<svg xmlns="http://www.w3.org/2000/svg" xmlns:xlink="http://www.w3.org/1999/xlink" version="1.1" x="0px" y="0px" viewBox="0 0 100 125" enable-background="new 0 0 100 100" xml:space="preserve"><g><path d="M87.176,67.496c-9.927,8.047-19.348,5.858-28.745,0.641c-0.003-0.23-0.053-0.47-0.177-0.711   c-1.283-2.505-1.899-5.008-1.94-7.434c4.426-3.096,9.396-5.103,14.66-6.318c1.883-0.436,0.924-3.279-0.947-2.848   c-4.688,1.083-9.189,2.809-13.282,5.299c0.888-3.586,3.084-6.888,6.33-9.621c1.459-1.229-0.167-3.755-1.648-2.508   c-4.861,4.095-7.696,9.18-8.021,14.671c-0.121,0.313-0.127,0.646-0.04,0.958c-0.011,1.983,0.304,4.015,0.972,6.068   c-7.678-4.857-15.388-11.026-23.39-14.607l0.102-0.764l3.122-1.702l0.454-0.12c1.438,0.813,2-1.563,2-1.563   c6.188,0,7.813-2.875,7.813-2.875c6.156-5.083,15.169-3.787,16.849-3.49l-9.661-1.823l-4.875-1.5l5.938,0.438   C51,36.813,25.063,29.5,25.063,29.5l-4.125-2.938c-5.44-2.146-7.329,0.805-7.871,2.083c0.465,0.785,1.163,2.338,1.137,4.437   c0.705,0.887,1.233,2.543,1.233,2.543c2.063,4.938,5.188,7.125,5.188,7.125c1.249,1.326,2.719,2.223,4.224,2.827L22.151,48.4   c-3.227-0.467-6.513-0.323-9.875,0.676c-1.854,0.551-0.906,3.398,0.948,2.848c6.787-2.017,13.426-0.201,19.717,3.028   c-8.174,1.936-16.692,1.607-21.524,9.859c-0.981,1.675,1.693,3.038,2.666,1.377c2.348-4.01,6.005-5.663,10.044-6.625   c-1.814,4.295-3.104,8.817-4.093,13.364c-0.412,1.894,2.52,2.533,2.931,0.645c1.031-4.739,2.367-9.456,4.368-13.884   c0.125-0.275,0.156-0.539,0.132-0.785c2.962-0.502,5.99-0.883,8.759-1.729c0.145-0.044,0.266-0.106,0.377-0.176   c5.653,3.398,10.978,7.595,15.815,10.714C64.045,75.209,77,79.589,88.824,70.004C90.311,68.799,88.682,66.275,87.176,67.496z    M17.375,30.875c-0.483,0-0.875-0.392-0.875-0.875s0.392-0.875,0.875-0.875S18.25,29.517,18.25,30S17.858,30.875,17.375,30.875z    M22.125,35.376c7.063,8.748,19.84,6.444,20.773,6.262C24.454,45.603,22.125,35.376,22.125,35.376z M29.15,49.429l-0.114,0.858   c-1.503-0.587-3.017-1.083-4.543-1.442l2.488-2.604c2.86,0.674,5.529,0.493,6.728,0.353l-3.382,1.845l-1.264,0.312L29.15,49.429z"/><path d="M12.461,29.645L9.875,32.5l3.325,0.056C13.132,31.31,12.785,30.316,12.461,29.645z"/><path d="M61.286,40.573l0.276,0.052C61.563,40.625,61.465,40.604,61.286,40.573z"/></g><text x="0" y="115" fill="#000000" font-size="5px" font-weight="bold" font-family="'Helvetica Neue', Helvetica, Arial-Unicode, Arial, Sans-serif">Created by Brand Mania</text><text x="0" y="120" fill="#000000" font-size="5px" font-weight="bold" font-family="'Helvetica Neue', Helvetica, Arial-Unicode, Arial, Sans-serif">from the Noun Project</text></svg>