<svg xmlns="http://www.w3.org/2000/svg" xmlns:xlink="http://www.w3.org/1999/xlink" version="1.1" x="0px" y="0px" viewBox="0 0 100 125" enable-background="new 0 0 100 100" xml:space="preserve"><g><path d="M91.6,78.1l-1.9-2.8c-0.3-0.4-6.6-9.6-13-16.1c-1-1-16.8-18.1-21.8-23.1c-3.4-3.4-9.9-7.3-17.2-7.3   c-5.6,0-10.8,2.2-15.3,6.6c-5.4,5.2-11.4,9.6-11.5,9.7l-2.4,1.7l2.6,1.3c1.8,0.9,6.7,3.6,8.5,5.4c3.6,3.6,5.3,14.3,5.3,22.7v1.8   H91.6z M37.3,50.3c-3.2,0-5.8-2.6-5.8-5.8s2.6-5.8,5.8-5.8c3.2,0,5.8,2.6,5.8,5.8S40.5,50.3,37.3,50.3z"/></g><g><path d="M39.6,44.5c0,1.2-1,2.2-2.2,2.2c-1.2,0-2.2-1-2.2-2.2c0-1.2,1-2.2,2.2-2.2C38.6,42.3,39.6,43.3,39.6,44.5z"/></g><text x="0" y="115" fill="#000000" font-size="5px" font-weight="bold" font-family="'Helvetica Neue', Helvetica, Arial-Unicode, Arial, Sans-serif">Created by HeadsOfBirds</text><text x="0" y="120" fill="#000000" font-size="5px" font-weight="bold" font-family="'Helvetica Neue', Helvetica, Arial-Unicode, Arial, Sans-serif">from the Noun Project</text></svg>